<svg width="50" height="42" viewBox="0 0 50 42" fill="none" xmlns="http://www.w3.org/2000/svg">
<path fill-rule="evenodd" clip-rule="evenodd" d="M8.97436 10.513C8.97436 4.70681 13.8533 0 19.8718 0C25.8903 0 30.7692 4.70681 30.7692 10.513C30.7692 16.3191 25.8903 21.0259 19.8718 21.0259C13.8533 21.0259 8.97436 16.3191 8.97436 10.513ZM19.8718 3.71045C15.9775 3.71045 12.8205 6.75604 12.8205 10.513C12.8205 14.2699 15.9775 17.3155 19.8718 17.3155C23.7661 17.3155 26.9231 14.2699 26.9231 10.513C26.9231 6.75604 23.7661 3.71045 19.8718 3.71045Z" fill="black"/>
<path fill-rule="evenodd" clip-rule="evenodd" d="M0 34.0125C0 28.8894 4.30495 24.7364 9.61538 24.7364H10.4894C10.9625 24.7364 11.4325 24.8085 11.8822 24.9502L14.1015 25.6493C17.851 26.8304 21.8926 26.8304 25.6421 25.6493L27.8614 24.9502C28.311 24.8085 28.7811 24.7364 29.2542 24.7364H30.1282C35.4386 24.7364 39.7436 28.8894 39.7436 34.0125V36.9519C39.7436 38.8151 38.3439 40.4037 36.4378 40.704C25.4664 42.432 14.2772 42.432 3.30582 40.704C1.3997 40.4037 0 38.8151 0 36.9519V34.0125ZM9.61538 28.4468C6.42913 28.4468 3.84615 30.9387 3.84615 34.0125V36.9519C3.84615 36.9966 3.87978 37.0348 3.92556 37.042C14.4865 38.7054 25.2571 38.7054 35.818 37.042C35.8638 37.0348 35.8974 36.9966 35.8974 36.9519V34.0125C35.8974 30.9387 33.3145 28.4468 30.1282 28.4468H29.2542C29.1866 28.4468 29.1194 28.4571 29.0552 28.4774L26.8359 29.1765C22.3107 30.6019 17.4328 30.6019 12.9076 29.1765L10.6884 28.4774C10.6241 28.4571 10.557 28.4468 10.4894 28.4468H9.61538Z" fill="black"/>
<path d="M41.6667 7.42091C42.7287 7.42091 43.5897 8.25152 43.5897 9.27613V13.605H48.0769C49.139 13.605 50 14.4356 50 15.4602C50 16.4848 49.139 17.3155 48.0769 17.3155H43.5897V21.6443C43.5897 22.6689 42.7287 23.4995 41.6667 23.4995C40.6046 23.4995 39.7436 22.6689 39.7436 21.6443V17.3155H35.2564C34.1943 17.3155 33.3333 16.4848 33.3333 15.4602C33.3333 14.4356 34.1943 13.605 35.2564 13.605H39.7436V9.27613C39.7436 8.25152 40.6046 7.42091 41.6667 7.42091Z" fill="black"/>
</svg>
