<svg width="32" height="37" viewBox="0 0 32 37" fill="none" xmlns="http://www.w3.org/2000/svg">
<path fill-rule="evenodd" clip-rule="evenodd" d="M28.2899 3.67491C20.1221 2.78374 11.8779 2.78374 3.71014 3.67492C3.15749 3.73521 2.89135 4.36789 3.2411 4.78996L10.4621 13.504C13.0489 16.6256 14.4601 20.5192 14.4601 24.5343V30.3254L17.5399 32.5302V24.5344C17.5399 20.5192 18.9511 16.6256 21.5379 13.504L28.7589 4.78995C29.1086 4.36789 28.8425 3.73521 28.2899 3.67491ZM3.36806 0.686985C11.7632 -0.228995 20.2368 -0.228995 28.6319 0.686984C31.6027 1.01112 33.0333 4.41209 31.1533 6.68087L23.9323 15.3949C21.7889 17.9814 20.6196 21.2075 20.6196 24.5344V35.4967C20.6196 36.0632 20.2934 36.5816 19.7758 36.8377C19.2582 37.0937 18.637 37.044 18.1691 36.709L12.0096 32.2994C11.6141 32.0162 11.3804 31.566 11.3804 31.0871V24.5343C11.3804 21.2075 10.2111 17.9814 8.06774 15.3949L0.846734 6.68087C-1.03332 4.41209 0.397287 1.01112 3.36806 0.686985Z" fill="#449797"/>
</svg>
