<svg width="35" height="30" viewBox="0 0 35 30" fill="none" xmlns="http://www.w3.org/2000/svg">
<path fill-rule="evenodd" clip-rule="evenodd" d="M6.28205 7.50925C6.28205 3.36201 9.69732 0 13.9103 0C18.1232 0 21.5385 3.36201 21.5385 7.50925C21.5385 11.6565 18.1232 15.0185 13.9103 15.0185C9.69732 15.0185 6.28205 11.6565 6.28205 7.50925ZM13.9103 2.65032C11.1842 2.65032 8.97436 4.82574 8.97436 7.50925C8.97436 10.1928 11.1842 12.3682 13.9103 12.3682C16.6363 12.3682 18.8462 10.1928 18.8462 7.50925C18.8462 4.82574 16.6363 2.65032 13.9103 2.65032Z" fill="white"/>
<path fill-rule="evenodd" clip-rule="evenodd" d="M0 24.2946C0 20.6353 3.01347 17.6688 6.73077 17.6688H7.34258C7.67372 17.6688 8.00278 17.7204 8.31757 17.8216L9.87105 18.3209C12.4957 19.1646 15.3248 19.1646 17.9495 18.3209L19.5029 17.8216C19.8177 17.7204 20.1468 17.6688 20.4779 17.6688H21.0897C24.807 17.6688 27.8205 20.6353 27.8205 24.2946V26.3942C27.8205 27.7251 26.8407 28.8598 25.5064 29.0743C17.8265 30.3086 9.99402 30.3086 2.31408 29.0743C0.979791 28.8598 0 27.7251 0 26.3942V24.2946ZM6.73077 20.3192C4.50039 20.3192 2.69231 22.099 2.69231 24.2946V26.3942C2.69231 26.4262 2.71584 26.4534 2.74789 26.4586C10.1405 27.6467 17.68 27.6467 25.0726 26.4586C25.1047 26.4534 25.1282 26.4262 25.1282 26.3942V24.2946C25.1282 22.099 23.3201 20.3192 21.0897 20.3192H20.4779C20.4306 20.3192 20.3836 20.3265 20.3386 20.341L18.7852 20.8403C15.6175 21.8585 12.203 21.8585 9.03536 20.8403L7.48187 20.341C7.4369 20.3265 7.38989 20.3192 7.34258 20.3192H6.73077Z" fill="white"/>
<path d="M29.1667 5.30065C29.9101 5.30065 30.5128 5.89394 30.5128 6.62581V9.71786H33.6538C34.3973 9.71786 35 10.3112 35 11.043C35 11.7749 34.3973 12.3682 33.6538 12.3682H30.5128V15.4602C30.5128 16.1921 29.9101 16.7854 29.1667 16.7854C28.4232 16.7854 27.8205 16.1921 27.8205 15.4602V12.3682H24.6795C23.936 12.3682 23.3333 11.7749 23.3333 11.043C23.3333 10.3112 23.936 9.71785 24.6795 9.71785H27.8205V6.62581C27.8205 5.89394 28.4232 5.30065 29.1667 5.30065Z" fill="white"/>
</svg>
