<svg width="32" height="31" viewBox="0 0 32 31" fill="none" xmlns="http://www.w3.org/2000/svg">
<path d="M17.3292 0.810951C16.737 -0.270315 15.263 -0.270319 14.6708 0.810951L10.4999 8.42581C10.2074 8.95995 9.70168 9.32445 9.12529 9.41668L1.30879 10.6674C-0.00404509 10.8774 -0.464554 12.6335 0.557869 13.5308L6.38084 18.6416C6.91985 19.1147 7.17329 19.861 7.04236 20.5894L5.51916 29.0636C5.27837 30.4032 6.60581 31.444 7.74479 30.8087L15.105 26.7031C15.6652 26.3906 16.3348 26.3906 16.895 26.7031L24.2552 30.8087C25.3942 31.444 26.7216 30.4032 26.4808 29.0636L24.9576 20.5894C24.8267 19.861 25.0802 19.1147 25.6192 18.6416L31.4421 13.5308C32.4645 12.6335 32.0041 10.8775 30.6912 10.6674L22.8747 9.41668C22.2983 9.32445 21.7926 8.95995 21.5001 8.42581L17.3292 0.810951Z" fill="#FF0000"/>
</svg>
