<svg width="42" height="42" viewBox="0 0 42 42" fill="none" xmlns="http://www.w3.org/2000/svg">
<path fill-rule="evenodd" clip-rule="evenodd" d="M9.48387 10.513C9.48387 4.70681 14.6398 0 21 0C27.3602 0 32.5161 4.70681 32.5161 10.513C32.5161 16.3191 27.3602 21.0259 21 21.0259C14.6398 21.0259 9.48387 16.3191 9.48387 10.513ZM21 3.71045C16.8846 3.71045 13.5484 6.75604 13.5484 10.513C13.5484 14.2699 16.8846 17.3154 21 17.3154C25.1154 17.3154 28.4516 14.2699 28.4516 10.513C28.4516 6.75604 25.1154 3.71045 21 3.71045Z" fill="black"/>
<path fill-rule="evenodd" clip-rule="evenodd" d="M10.1613 28.4468C6.79414 28.4468 4.06452 30.9387 4.06452 34.0125V36.9519C4.06452 36.9966 4.10005 37.0348 4.14843 37.042C15.3089 38.7054 26.6911 38.7054 37.8516 37.042C37.9 37.0348 37.9355 36.9966 37.9355 36.9519V34.0125C37.9355 30.9387 35.2059 28.4468 31.8387 28.4468H30.9151C30.8437 28.4468 30.7727 28.4571 30.7048 28.4774L28.3595 29.1765C23.5774 30.6019 18.4226 30.6019 13.6405 29.1765L11.2952 28.4774C11.2273 28.4571 11.1564 28.4468 11.0849 28.4468H10.1613ZM0 34.0125C0 28.8894 4.54936 24.7364 10.1613 24.7364H11.0849C11.5849 24.7364 12.0816 24.8085 12.5568 24.9502L14.9021 25.6493C18.8644 26.8304 23.1356 26.8304 27.0979 25.6493L29.4432 24.9502C29.9184 24.8085 30.4152 24.7364 30.9151 24.7364H31.8387C37.4506 24.7364 42 28.8894 42 34.0125V36.9519C42 38.8151 40.5208 40.4037 38.5065 40.704C26.9122 42.432 15.0878 42.432 3.49351 40.704C1.47917 40.4037 0 38.8151 0 36.9519V34.0125Z" fill="black"/>
</svg>
