<svg width="34" height="36" viewBox="0 0 34 36" fill="none" xmlns="http://www.w3.org/2000/svg">
<path d="M7.60731 0.548709C13.7997 -0.182903 20.2003 -0.182903 26.3927 0.548709C28.7176 0.823389 30.7585 2.15245 32.0495 4.08259L15.9972 21.0516L11.0441 15.8156C10.4567 15.1946 9.50426 15.1946 8.91684 15.8156C8.32941 16.4365 8.32941 17.4433 8.91684 18.0643L14.9336 24.4247C15.521 25.0457 16.4734 25.0457 17.0609 24.4247L33.3371 7.21894C33.3822 7.45123 33.4182 7.68711 33.4446 7.92618C34.1851 14.6193 34.1851 21.3807 33.4446 28.0738C33.0137 31.9684 30.0557 35.0185 26.3927 35.4513C20.2003 36.1829 13.7997 36.1829 7.60731 35.4513C3.94434 35.0185 0.986294 31.9684 0.555394 28.0738C-0.185131 21.3807 -0.185131 14.6193 0.555394 7.92618C0.986294 4.03158 3.94434 0.98148 7.60731 0.548709Z" fill="#1E90FF"/>
</svg>
